HIERARCHY
ROOT Hips
{
	OFFSET -3.958830 18.904000 13.208200
	CHANNELS 6 Xposition Yposition Zposition Zrotation Yrotation Xrotation 
	JOINT LHipJoint
	{
		OFFSET 0.000000 0.000000 0.000000
		CHANNELS 3 Zrotation Yrotation Xrotation
		JOINT LeftUpLeg
		{
			OFFSET 1.800000 -1.400000 0.085000
			CHANNELS 3 Zrotation Yrotation Xrotation
			JOINT LeftLeg
			{
				OFFSET 2.215000 -6.000000 0.000000
				CHANNELS 3 Zrotation Yrotation Xrotation
				JOINT LeftFoot
				{
					OFFSET 2.500000 -6.900000 0.000000
					CHANNELS 3 Zrotation Yrotation Xrotation
					JOINT LeftToeBase
					{
						OFFSET 0.200000 -0.500000 1.950000
						CHANNELS 3 Zrotation Yrotation Xrotation
						End Site
						{
							OFFSET 0.000000 0.000000 0.000000
						}
					}
				}
			}
		}
	}
	JOINT RHipJoint
	{
		OFFSET 0.000000 0.000000 0.000000
		CHANNELS 3 Zrotation Yrotation Xrotation
		JOINT RightUpLeg
		{
			OFFSET -1.800000 -1.400000 0.085000
			CHANNELS 3 Zrotation Yrotation Xrotation
			JOINT RightLeg
			{
				OFFSET -2.215000 -6.000000 0.000000
				CHANNELS 3 Zrotation Yrotation Xrotation
				JOINT RightFoot
				{
					OFFSET -2.500000 -6.900000 0.000000
					CHANNELS 3 Zrotation Yrotation Xrotation
					JOINT RightToeBase
					{
						OFFSET -0.200000 -0.500000 1.950000
						CHANNELS 3 Zrotation Yrotation Xrotation
						End Site
						{
							OFFSET 0.000000 0.000000 0.000000
						}
					}
				}
			}
		}
	}
	JOINT LowerBack
	{
		OFFSET 0.000000 0.000000 0.000000
		CHANNELS 3 Zrotation Yrotation Xrotation
		JOINT Spine
		{
			OFFSET -0.087000 1.940000 -0.288900
			CHANNELS 3 Zrotation Yrotation Xrotation
			JOINT Spine1
			{
				OFFSET 0.000000 1.950000 0.060000
				CHANNELS 3 Zrotation Yrotation Xrotation
				JOINT Neck
				{
					OFFSET 0.000000 0.000000 0.000000
					CHANNELS 3 Zrotation Yrotation Xrotation
					JOINT Neck1
					{
						OFFSET 0.000000 1.600000 0.340000
						CHANNELS 3 Zrotation Yrotation Xrotation
						JOINT Head
						{
							OFFSET 0.000000 1.667000 -0.240000
							CHANNELS 3 Zrotation Yrotation Xrotation
							End Site
							{
								OFFSET 0.000000 0.000000 0.000000
							}
						}
					}
				}
				JOINT LeftShoulder
				{
					OFFSET 0.000000 0.000000 0.000000
					CHANNELS 3 Zrotation Yrotation Xrotation
					JOINT LeftArm
					{
						OFFSET 2.700000 1.550000 -0.730000
						CHANNELS 3 Zrotation Yrotation Xrotation
						JOINT LeftForeArm
						{
							OFFSET 5.450000 0.000000 0.000000
							CHANNELS 3 Zrotation Yrotation Xrotation
							JOINT LeftHand
							{
								OFFSET 3.450000 0.000000 0.000000
								CHANNELS 3 Zrotation Yrotation Xrotation
								JOINT LeftHandIndex1
								{
									OFFSET 0.750000 0.000000 0.000000
									CHANNELS 3 Zrotation Yrotation Xrotation
									End Site
									{
										OFFSET 0.000000 0.000000 0.000000
									}
								}
							}
						}
					}
				}
				JOINT RightShoulder
				{
					OFFSET 0.000000 0.000000 0.000000
					CHANNELS 3 Zrotation Yrotation Xrotation
					JOINT RightArm
					{
						OFFSET -2.700000 1.550000 -0.730000
						CHANNELS 3 Zrotation Yrotation Xrotation
						JOINT RightForeArm
						{
							OFFSET -5.450000 0.000000 0.000000
							CHANNELS 3 Zrotation Yrotation Xrotation
							JOINT RightHand
							{
								OFFSET -3.450000 0.000000 0.000000
								CHANNELS 3 Zrotation Yrotation Xrotation
								JOINT RightHandIndex1
								{
									OFFSET -0.750000 0.000000 0.000000
									CHANNELS 3 Zrotation Yrotation Xrotation
									End Site
									{
										OFFSET 0.000000 0.000000 0.000000
									}
								}
							}
						}
					}
				}
			}
		}
	}
}
MOTION
Frames: 9
Frame Time: 0.016667
-2.219920 16.677960 -2.963110 -4.874220 63.666081 -11.090348 -15.491614 13.581550 2.429464 18.684098 1.693103 -13.601234 5.094707 3.934748 12.316258 -0.959819 3.953928 3.355422 -0.449120 -0.885360 -0.518080 17.384776 -12.918706 2.864683 -13.733997 2.437951 -11.009094 3.748891 -6.107086 19.025085 -0.087821 -4.012104 3.256889 -0.402410 0.574080 -0.024010 -6.187454 2.743330 -7.908266 27.806316 -1.229867 20.938919 -12.151980 5.279035 5.879744 6.762595 -1.467006 -14.774306 0.023635 -14.331188 38.870081 6.001650 -18.638900 -25.827460 -27.379777 -9.093373 7.368013 -63.330592 12.444345 -19.162061 1.139016 -44.842605 -3.998362 -3.404082 2.510156 1.024810 -0.001690 -0.209270 0.082150 11.783898 20.793837 12.708983 44.455843 25.814661 -11.426750 -122.087534 42.133040 -89.982971 1.947689 -0.340673 -0.741180 0.634010 0.622440 -0.195140 
-2.212270 16.612650 -3.026690 -5.348446 64.645552 -11.400365 -15.533843 13.516427 2.395428 18.796588 1.741549 -14.851782 5.248837 4.045477 13.854042 -1.013447 3.998778 3.320583 -0.420210 -0.826760 -0.503410 17.346024 -13.031662 2.853279 -13.919118 3.009150 -13.021288 3.374640 -6.251852 22.027967 -0.069197 -4.153051 3.189335 -0.336460 0.600680 -0.038230 -6.236367 3.169952 -7.878303 26.765185 -0.447178 20.472471 -10.136613 5.580662 5.810873 6.652096 -0.050293 -14.463025 3.126272 -14.852620 36.723105 4.693220 -18.000580 -23.996430 -26.949592 -8.230058 7.325874 -64.570813 11.804462 -19.121169 0.706359 -47.917715 -3.979555 -3.445029 2.493624 0.993820 0.042200 -0.226940 0.093060 11.561711 19.287350 11.816230 43.165183 27.064826 -12.731418 -116.269140 42.278797 -80.860323 1.906321 -0.333423 -0.762520 0.672090 0.612160 -0.198760 
-2.206940 16.568090 -3.087510 -4.947090 65.181729 -11.505119 -15.578330 13.595014 2.328547 18.024851 1.824885 -16.038619 6.361238 4.022360 16.504361 -1.056505 4.063931 3.266655 -0.422560 -0.801020 -0.502580 17.281788 -13.141375 2.878120 -14.242013 3.245398 -14.041167 2.967462 -6.352087 23.881034 -0.068401 -4.262685 3.144854 -0.304550 0.608110 -0.039930 -6.049970 3.330472 -7.831504 24.633319 0.215391 21.618156 -7.949536 6.173782 5.139769 6.432133 1.650716 -14.781203 6.960408 -15.454294 35.274635 3.865870 -17.019840 -23.473610 -25.992909 -7.355299 7.175303 -65.790546 11.443849 -19.016565 -1.941081 -50.986623 -2.977811 -3.488051 2.467227 0.996360 0.073050 -0.218090 0.082370 10.874576 17.994767 11.581740 43.535766 27.243006 -14.092880 -112.706962 42.806899 -76.569998 1.887784 -0.288943 -0.779680 0.700280 0.625480 -0.214340 
-2.200400 16.547220 -3.152940 -4.180047 64.774831 -12.540678 -15.618580 13.828341 2.231264 16.860933 2.006773 -15.981956 8.265865 3.862101 19.862089 -1.019311 4.229943 3.175955 -0.420800 -0.783370 -0.478030 17.199131 -13.273480 2.864636 -14.206778 2.959675 -13.413588 1.734243 -6.122747 24.387965 -0.099994 -4.239546 3.154043 -0.316790 0.568240 -0.027400 -5.801639 3.287107 -7.798148 23.027215 -0.034887 24.405802 -7.166845 6.516695 5.285955 6.454522 2.422656 -16.163023 9.974473 -14.773917 36.003813 3.950510 -14.984670 -24.473290 -24.296210 -7.202968 7.398865 -67.744326 11.157409 -19.855685 -3.662962 -56.373932 -2.418204 -3.440946 2.512266 1.038930 0.052780 -0.161140 0.063840 8.978995 18.537116 12.846965 45.767664 28.425812 -16.604852 -110.939037 43.666289 -75.851941 1.957887 -0.196290 -0.765630 0.690460 0.621460 -0.233220 
-2.189260 16.555710 -3.231300 -3.408939 63.790898 -14.357089 -15.660328 14.241815 2.199633 15.153464 2.173316 -15.248199 10.919264 3.442594 23.389362 -0.964758 4.539907 3.051370 -0.436490 -0.813200 -0.427310 17.093983 -13.315324 2.813884 -13.777086 2.320005 -11.350394 -0.215200 -5.593569 23.647828 -0.134289 -4.074839 3.233703 -0.356270 0.517220 -0.036130 -5.307457 2.751538 -7.756761 21.276644 -0.393590 28.538969 -6.253083 7.282466 4.525602 6.648805 2.245326 -17.819750 12.447126 -13.796343 39.009557 3.942310 -12.486440 -26.221710 -23.538070 -5.943424 7.046290 -69.990813 11.417262 -20.575067 -5.646168 -61.940416 -1.552760 -3.370314 2.503261 1.137130 0.002400 -0.091030 0.032520 7.494676 19.424709 14.668827 47.860160 28.893636 -19.647440 -111.201489 46.178169 -78.813019 2.074503 0.018762 -0.786330 0.707470 0.623930 -0.277890 
-2.175800 16.563260 -3.296000 -1.359738 63.888804 -15.139345 -15.694163 14.572839 2.199229 13.074317 2.188761 -14.299248 12.901905 3.071700 26.958317 -0.889276 4.931800 2.883052 -0.410570 -0.778340 -0.390310 17.031246 -13.225576 2.721798 -14.831654 1.641983 -8.714472 -0.487420 -5.683096 23.084897 -0.198909 -4.134025 3.212317 -0.356830 0.452370 -0.047380 -4.728652 1.866421 -7.701228 18.238199 -0.063842 31.750144 -4.434884 7.917824 5.402464 6.737138 1.386234 -19.453945 12.735441 -14.077400 43.407392 4.630250 -12.130360 -27.691740 -22.183291 -6.789662 7.277506 -72.535112 10.379004 -21.933443 -4.060338 -67.095070 -3.432470 -3.287741 2.492064 1.202500 -0.057240 -0.025610 0.016840 6.507601 21.921416 15.990788 46.536806 28.601883 -23.728552 -110.309561 46.384386 -77.502618 2.159270 0.066472 -0.774370 0.714980 0.612300 -0.296690 
-2.152630 16.555770 -3.358790 1.044383 64.306192 -15.475245 -15.701406 14.730458 2.188046 11.101248 2.192982 -12.835584 14.948015 2.567491 29.872451 -0.773811 5.351389 2.744838 -0.425940 -0.797540 -0.411650 17.004824 -13.220212 2.648304 -16.735731 1.131632 -6.359887 -0.808458 -5.795703 22.378306 -0.240129 -4.266423 3.171153 -0.381360 0.450030 -0.058430 -4.591099 1.413555 -7.676053 17.432190 -0.133445 34.239013 -4.699029 8.228921 6.532458 6.403560 0.168290 -20.253371 10.730046 -14.031027 46.881769 6.698580 -13.272570 -27.751680 -20.779072 -8.031456 7.796051 -71.163534 10.478589 -22.721257 -8.462007 -71.237640 -1.802137 -3.221366 2.593574 1.221870 -0.085340 -0.011900 0.019680 6.251467 24.088163 16.809620 43.783067 28.237194 -27.359277 -109.201575 45.035887 -73.758313 2.237638 0.017875 -0.769960 0.723300 0.617920 -0.282990 
-2.119900 16.524080 -3.417330 3.781185 64.302503 -14.637901 -15.711261 14.567071 2.150240 9.295400 2.128311 -11.725195 15.333315 2.593864 32.928745 -0.718239 5.820206 2.572848 -0.425120 -0.800520 -0.405210 17.023713 -13.311755 2.578157 -18.939204 0.995790 -5.384212 -0.359883 -6.241052 23.048063 -0.267566 -4.568148 3.033731 -0.364280 0.463520 -0.048220 -4.658337 1.691665 -7.625287 16.479606 0.549311 35.595959 -4.168174 8.703950 7.883763 5.762835 0.761737 -20.147268 12.052070 -14.067879 44.906241 6.382860 -12.853890 -27.106890 -17.835894 -7.658504 7.617751 -70.077766 10.231574 -21.664324 -19.340956 -74.285076 5.586693 -3.237373 2.767634 1.215720 -0.063920 -0.026830 0.004790 4.772118 23.345810 16.985558 43.964918 30.239278 -28.521769 -108.062742 44.543432 -71.988994 2.264605 -0.044200 -0.780920 0.725150 0.639700 -0.295190 
-2.066820 16.479130 -3.478420 4.351846 64.216900 -14.382411 -15.717064 14.463209 2.145391 8.204318 2.073097 -11.938336 15.917511 2.524161 35.156261 -0.690390 6.171969 2.442731 -0.406880 -0.781440 -0.404700 17.047505 -13.313193 2.531625 -20.317310 1.132726 -5.752252 0.126641 -6.512630 23.749377 -0.257301 -4.736938 2.953507 -0.328760 0.479410 -0.044890 -4.763640 1.849890 -7.570083 16.952262 1.833608 34.671664 -3.066696 9.596981 8.054571 4.964340 1.730247 -19.079364 12.203672 -15.640093 43.261196 5.366840 -14.504960 -25.255420 -16.393641 -7.692569 7.811395 -66.786801 11.275014 -20.271098 -32.221812 -74.217345 14.806261 -3.251262 2.902170 1.179360 -0.030560 -0.058020 0.009940 5.081225 21.643925 15.117280 43.031940 28.544892 -25.735374 -107.185214 42.565199 -69.567203 2.133107 -0.154114 -0.783310 0.728430 0.643160 -0.293020 
